var fontJSON=
{"glyphs":{"0":{"ha":851,"x_min":31,"x_max":821,"o":"m 325 993 q 821 658 781 1054 q 821 335 801 497 q 710 50 790 132 q 538 -40 629 -31 q 182 10 314 -61 q 31 304 50 111 l 40 689 q 325 993 81 943 m 406 10 q 689 163 568 0 q 781 476 710 193 q 710 790 750 750 q 467 943 629 903 q 163 801 274 953 l 101 658 l 71 476 l 111 243 q 406 10 193 50 m 344 771 q 557 719 557 790 q 538 547 568 608 l 547 415 l 528 354 l 538 253 l 486 203 q 294 264 325 172 q 294 719 314 538 l 344 771 m 406 264 q 476 304 436 243 l 497 365 q 507 568 476 547 q 426 719 507 700 q 354 679 375 719 l 335 629 q 406 264 304 314 z "},"1":{"ha":490,"x_min":21,"x_max":467,"o":"m 365 1146 q 467 1094 456 1146 l 426 781 l 436 213 l 385 163 l 151 172 l 101 224 q 151 710 122 588 l 142 842 l 21 953 q 71 1106 21 1094 l 294 1125 l 365 1146 m 233 224 l 354 233 l 396 304 q 396 1014 375 1004 l 325 1075 q 111 1035 163 1075 l 111 974 q 203 882 172 953 q 182 669 213 750 q 163 294 213 588 q 233 224 193 243 z "},"2":{"ha":774,"x_min":-8,"x_max":750,"o":"m 294 993 q 750 760 710 1044 l 750 568 q 700 456 731 476 q 507 325 689 415 l 507 294 l 538 274 l 689 283 l 740 233 l 731 50 l 679 0 l 365 21 l 92 10 l 40 61 q 61 385 31 243 q 163 517 92 467 l 163 557 q 50 639 50 588 q 294 993 -8 903 m 172 50 l 618 61 l 679 122 q 608 224 689 182 l 335 213 l 283 264 q 325 354 264 294 q 700 669 689 446 q 446 943 658 882 q 264 913 396 953 l 151 821 l 111 750 q 172 629 101 639 l 253 639 l 283 669 q 344 821 283 801 q 497 771 467 842 q 476 557 507 578 l 426 528 q 122 325 172 467 l 92 132 l 122 81 l 172 50 m 365 629 q 446 669 436 608 l 426 740 l 365 740 l 344 700 l 365 629 z "},"3":{"ha":813,"x_min":-8,"x_max":821,"o":"m 283 903 q 618 872 538 913 q 750 679 740 801 q 719 446 760 456 l 719 385 l 790 253 q 528 -132 821 -101 q 274 -132 375 -111 q 31 71 71 -111 q 81 243 10 224 l 193 233 l 264 304 l 253 467 l 182 507 l 81 507 q 61 750 -8 547 q 283 903 132 882 m 163 557 l 243 578 l 294 679 q 436 689 325 719 l 486 639 l 476 497 l 426 446 q 335 365 344 446 q 476 304 344 325 l 517 243 l 528 92 l 476 40 l 344 40 q 253 172 304 40 l 163 203 q 92 132 111 172 q 344 -81 111 -31 q 731 122 608 -101 l 719 243 q 568 385 731 264 l 568 426 q 679 679 740 547 q 436 851 618 801 q 101 649 233 872 l 111 599 l 163 557 m 354 528 l 415 547 q 396 608 426 588 q 335 588 354 618 q 354 528 325 547 m 385 111 q 467 163 436 92 l 436 233 q 354 203 365 243 q 385 111 344 182 z "},"4":{"ha":896,"x_min":10,"x_max":892,"o":"m 467 872 q 528 842 497 882 q 467 517 557 538 l 325 517 l 283 557 l 294 618 q 467 872 436 861 m 446 1106 l 679 1085 l 731 1035 l 719 790 l 740 740 l 750 578 l 851 517 q 861 335 892 446 l 740 243 l 719 193 q 679 61 760 92 q 446 61 476 81 l 396 111 l 406 203 l 375 264 l 314 304 l 92 294 l 40 344 q 111 679 10 538 q 446 1106 396 1115 m 172 335 l 396 344 l 446 294 l 436 203 l 467 142 l 528 101 l 599 101 l 669 151 l 689 203 q 689 314 669 253 q 811 426 811 385 l 790 467 q 689 538 679 517 q 689 943 669 700 q 608 1035 669 1004 l 486 1035 q 92 467 354 913 l 101 385 l 172 335 z "},"5":{"ha":813,"x_min":50,"x_max":842,"o":"m 314 760 l 467 760 l 568 740 l 649 811 q 588 913 679 851 l 182 903 l 142 842 l 122 629 l 122 436 l 182 385 l 314 436 l 486 426 l 538 375 q 538 182 517 294 l 486 132 l 365 132 q 294 233 314 142 q 182 264 243 283 l 132 213 q 224 71 111 182 l 396 10 q 750 253 608 -10 q 486 588 781 497 q 304 538 426 588 l 253 578 l 253 710 l 314 760 m 396 203 l 446 203 l 486 253 q 415 375 497 344 q 354 314 396 385 l 396 203 m 142 974 q 669 974 406 953 l 719 922 l 700 740 q 599 689 669 700 l 578 649 l 719 568 q 801 172 842 486 q 538 -40 710 -10 q 50 193 92 -71 l 92 922 l 142 974 z "},"6":{"ha":824,"x_min":31,"x_max":832,"o":"m 325 1044 q 771 811 710 1094 q 740 669 781 700 l 731 618 q 801 456 801 528 q 538 10 832 50 q 31 335 81 -50 q 31 658 50 497 l 61 811 q 151 963 81 882 q 325 1044 213 1024 m 396 61 q 750 354 669 61 q 568 618 740 538 q 354 578 467 639 l 314 618 q 365 842 294 832 l 517 832 l 608 740 q 700 790 669 719 q 467 993 649 943 q 163 842 274 1004 q 71 517 142 821 q 122 243 92 304 q 396 61 213 101 m 314 476 q 486 476 426 456 l 538 426 l 528 253 l 476 203 l 314 213 l 264 264 q 314 476 243 476 m 385 264 q 476 335 446 274 q 415 426 486 354 q 314 354 354 436 q 385 264 325 294 m 426 679 l 486 700 l 486 760 l 446 781 q 385 740 406 781 q 426 679 365 719 z "},"7":{"ha":690,"x_min":10,"x_max":679,"o":"m 71 974 l 335 963 q 629 953 375 922 l 679 903 l 669 669 q 426 40 507 396 q 365 -31 415 -10 q 101 -31 253 -10 l 50 21 q 294 629 132 304 q 243 700 314 639 l 61 689 l 10 740 l 21 922 l 71 974 m 213 10 q 365 81 304 0 q 629 781 446 446 l 618 861 l 547 913 q 142 913 283 892 q 71 842 92 882 q 142 750 81 781 l 375 760 l 415 719 l 406 658 l 243 335 l 151 81 l 163 50 l 213 10 z "},"8":{"ha":863,"x_min":21,"x_max":882,"o":"m 821 913 q 781 669 842 710 l 781 588 q 821 233 882 476 q 568 81 740 101 l 264 92 q 31 294 71 132 q 101 588 21 547 l 101 679 q 92 993 21 750 q 314 1115 163 1094 q 568 1115 467 1094 q 821 913 790 1075 m 396 132 q 781 325 679 122 q 629 588 832 446 l 639 649 q 760 882 801 781 q 486 1064 689 1024 q 233 1014 304 1064 q 122 882 163 953 l 122 790 l 163 719 l 243 658 q 243 588 264 639 q 101 446 151 538 q 396 132 40 213 m 385 922 q 557 872 538 943 q 507 679 578 689 q 335 750 335 669 q 385 922 314 903 m 426 750 q 497 771 476 740 q 476 851 507 821 q 396 811 426 872 l 426 750 m 344 557 q 517 557 456 538 l 568 507 q 517 283 588 294 q 344 283 406 304 l 294 335 q 344 557 274 547 m 415 335 q 517 406 476 325 q 446 507 528 467 q 344 436 385 517 q 415 335 335 375 z "},"9":{"ha":863,"x_min":10,"x_max":832,"o":"m 314 993 q 832 700 821 1014 l 821 283 q 528 -40 760 -21 q 172 -10 264 -50 q 40 182 50 61 q 71 344 31 344 q 40 538 101 375 q 314 993 10 963 m 335 375 l 467 396 l 517 344 q 467 163 538 172 l 335 163 l 283 203 q 193 283 264 264 l 142 283 l 101 224 q 365 10 132 61 q 557 40 415 0 q 731 213 658 81 l 790 497 q 700 821 790 700 q 456 943 599 913 q 92 649 163 943 q 335 375 92 436 m 365 790 q 578 740 578 811 q 578 547 557 658 l 528 497 l 354 507 l 304 557 l 314 740 l 365 790 m 426 557 q 528 629 486 547 q 456 740 538 700 q 365 669 396 731 q 426 557 354 599 m 385 224 l 446 243 q 415 314 456 294 l 354 294 q 385 224 344 243 z "}," ":{"ha":375,"x_min":0,"x_max":0,"o":""},"!":{"ha":443,"x_min":47,"x_max":354,"o":"m 121 1025 l 317 1007 l 354 969 l 344 746 l 299 457 q 336 279 279 354 q 261 93 354 131 q 47 186 75 65 l 47 299 l 83 419 l 103 699 q 75 969 75 708 l 121 1025 m 178 447 q 251 503 233 438 l 299 829 q 224 969 317 932 q 131 904 168 979 q 131 560 149 792 q 178 447 149 457 m 186 149 l 233 158 l 271 206 q 224 307 271 289 q 113 261 158 326 q 186 149 93 214 z "},"\"":{"ha":425,"x_min":38,"x_max":401,"o":"m 83 960 l 354 960 l 401 914 q 401 643 382 663 l 354 597 l 83 597 l 38 643 q 38 914 56 671 l 83 960 m 103 681 q 168 708 149 671 q 149 876 178 857 q 75 829 103 894 q 103 681 65 726 m 289 681 q 364 726 336 663 q 336 876 372 829 q 271 849 289 886 q 289 681 261 699 z "},"$":{"ha":767,"x_min":-8,"x_max":792,"o":"m 317 942 q 475 914 438 951 l 532 867 q 699 726 653 839 l 699 671 q 671 568 653 625 q 726 242 792 447 q 494 121 690 149 q 410 10 438 10 q 279 28 289 0 q 214 131 251 113 q 65 214 103 168 l 28 299 l 38 364 l 75 410 l 83 457 q 47 792 -8 550 l 121 849 l 233 886 l 317 942 m 121 317 q 140 251 113 251 q 299 158 307 178 l 336 75 l 392 83 l 447 178 q 690 336 643 214 q 653 485 708 429 l 578 540 l 447 568 q 401 663 372 625 q 438 736 382 718 l 568 690 q 606 718 578 681 l 560 783 q 392 876 438 821 l 326 867 l 271 821 q 75 663 121 801 l 103 550 l 178 475 q 317 401 299 447 q 271 271 336 299 l 158 336 l 121 317 m 242 736 q 317 690 299 736 q 271 578 336 615 q 196 625 214 578 q 242 736 178 699 m 457 429 q 550 382 540 429 q 503 271 568 307 q 410 317 419 271 q 457 429 392 392 z "},"&":{"ha":828,"x_min":18,"x_max":801,"o":"m 289 1025 q 550 1007 513 1035 q 653 876 633 960 l 643 653 l 653 633 q 756 568 718 625 l 736 336 l 801 214 l 792 178 l 756 149 l 494 131 l 429 113 q 158 140 251 103 q 38 317 47 206 q 121 625 18 550 q 131 922 103 849 q 289 1025 186 1007 m 326 158 q 485 214 364 149 l 653 196 l 690 233 l 690 271 l 653 354 l 699 513 l 653 560 l 606 540 l 568 475 q 457 550 513 438 l 467 615 l 560 699 q 419 979 681 867 q 168 839 242 969 q 233 663 140 774 l 224 588 q 93 438 140 550 q 326 158 75 214 m 372 876 q 485 829 485 876 q 429 690 494 699 q 326 736 336 690 q 372 876 307 849 m 317 522 q 485 372 419 522 q 438 299 503 336 q 271 344 279 279 q 317 522 251 513 z "},"'":{"ha":314,"x_min":56,"x_max":233,"o":"m 103 942 q 233 894 206 960 q 233 625 214 643 l 186 578 q 56 625 83 560 q 56 894 75 653 l 103 942 m 121 663 q 196 708 168 643 q 168 857 206 811 q 93 811 121 876 q 121 663 83 708 z "},"(":{"ha":371,"x_min":28,"x_max":289,"o":"m 214 1090 q 289 1044 289 1072 l 206 578 q 289 38 186 578 q 242 -28 271 -18 q 28 401 113 -56 q 28 663 47 532 q 149 1044 83 922 l 214 1090 m 149 242 l 178 242 q 149 513 186 299 l 140 699 l 149 708 q 103 681 113 718 l 75 578 q 149 242 75 364 z "},")":{"ha":326,"x_min":38,"x_max":289,"o":"m 93 942 q 214 839 178 932 l 251 736 l 289 560 l 279 224 q 121 -178 206 -178 q 38 -121 56 -168 l 113 344 q 38 876 131 419 l 93 942 m 178 233 l 206 242 l 251 419 q 168 699 214 663 l 140 690 l 168 475 l 178 233 z "},"*":{"ha":497,"x_min":10,"x_max":467,"o":"m 242 690 l 344 663 l 457 532 q 289 251 467 299 l 103 289 q 28 401 47 307 q 65 615 10 532 l 242 690 m 224 438 q 279 457 279 429 l 271 503 l 214 494 l 224 438 z "},",":{"ha":439,"x_min":38,"x_max":410,"o":"m 158 261 q 401 131 372 289 q 382 -131 410 -93 q 261 -224 307 -233 q 113 -196 131 -233 q 65 47 113 0 q 158 261 38 214 m 271 -83 q 354 0 326 -83 q 261 196 364 131 q 131 131 186 224 q 149 47 121 75 l 261 -28 l 271 -83 z "},"-":{"ha":576,"x_min":75,"x_max":447,"o":"m 140 467 q 382 467 261 447 l 429 419 q 382 251 447 261 q 140 251 206 271 l 93 299 q 140 467 75 457 m 214 289 q 364 336 279 289 l 364 392 l 307 429 l 214 429 l 149 372 l 168 317 l 214 289 z "},".":{"ha":389,"x_min":-8,"x_max":372,"o":"m 140 261 q 364 149 307 299 q 261 -56 372 -47 q 28 47 65 -83 q 140 261 -8 196 m 178 0 q 299 75 214 -18 l 299 121 q 224 196 279 168 q 93 131 186 224 q 178 0 75 75 z "},"/":{"ha":483,"x_min":38,"x_max":457,"o":"m 336 942 q 457 886 419 951 l 429 746 q 214 -10 214 113 l 196 -37 l 158 -56 q 38 10 38 -28 l 75 186 q 279 876 251 699 q 336 942 289 922 z "},":":{"ha":433,"x_min":38,"x_max":429,"o":"m 186 699 q 429 597 401 726 l 419 447 l 382 401 q 299 354 307 382 q 354 279 289 326 q 271 18 429 75 q 38 121 75 -10 l 47 271 q 168 364 65 299 l 168 392 q 93 597 75 457 q 186 699 103 671 m 233 438 q 364 503 289 410 q 289 643 401 550 q 149 568 206 663 q 233 438 131 532 m 186 75 q 307 140 206 47 q 224 279 326 224 q 93 196 149 299 l 113 131 l 186 75 z "},";":{"ha":393,"x_min":0,"x_max":392,"o":"m 121 588 q 354 485 336 597 q 251 271 364 279 q 28 372 65 242 q 121 588 18 578 m 158 336 q 289 401 214 307 q 206 532 307 457 q 93 467 140 540 q 158 336 83 372 m 121 196 q 364 65 336 224 q 224 -289 392 -279 q 83 -261 113 -299 l 75 -112 l 28 -18 q 121 196 0 149 m 251 -121 q 317 -65 299 -131 q 224 131 326 65 q 93 65 149 158 q 113 -18 83 10 q 251 -121 251 -83 z "},"?":{"ha":760,"x_min":-26,"x_max":726,"o":"m 251 1090 q 718 914 671 1118 q 690 633 726 736 l 606 550 q 467 485 503 540 l 457 457 q 401 158 560 214 q 158 261 186 131 q 196 457 140 344 q 186 708 214 633 l 158 736 q 47 951 -26 746 q 251 1090 131 1090 m 140 792 l 196 792 l 251 829 q 317 914 261 904 q 485 867 475 932 l 475 708 l 438 681 q 251 633 289 699 l 233 578 q 307 494 251 522 l 382 513 l 447 578 q 663 756 588 588 q 401 1044 718 951 q 93 876 178 1053 q 140 792 75 857 m 307 214 q 429 279 382 206 q 364 392 457 307 q 224 336 279 419 q 307 214 206 299 z "},"A":{"ha":964,"x_min":10,"x_max":943,"o":"m 342 913 l 643 901 q 725 767 704 860 l 943 0 q 892 -83 943 -62 q 601 -83 725 -62 l 560 -51 l 518 51 q 425 114 456 125 q 332 -31 363 104 q 197 -83 279 -93 l 186 -72 q 21 -31 63 -114 q 83 228 10 42 l 290 871 l 342 913 m 156 -31 q 249 0 197 -42 l 300 125 q 518 165 332 186 l 569 135 l 601 42 q 736 -42 704 -62 q 850 21 767 -72 q 643 788 871 31 q 497 860 590 839 q 332 778 374 881 l 104 63 q 156 -31 83 42 m 446 685 l 497 664 l 560 425 q 518 321 581 332 q 353 374 374 300 l 415 653 l 446 685 z "},"B":{"ha":828,"x_min":21,"x_max":850,"o":"m 83 788 l 83 176 q 165 72 104 93 q 404 63 300 135 q 746 374 653 31 q 569 694 746 590 l 456 694 l 353 643 q 300 685 311 643 l 300 892 l 218 974 q 114 943 186 985 l 83 788 m 83 1026 l 239 1006 q 363 964 321 1047 l 353 819 l 383 767 q 715 704 653 767 q 778 207 850 560 q 550 0 704 21 l 207 21 q 31 63 63 -21 l 51 239 l 51 778 q 31 974 21 850 l 83 1026 m 374 550 q 518 488 488 581 q 456 197 550 260 q 260 249 269 176 l 269 508 q 374 550 300 550 m 353 260 q 456 321 415 228 q 415 476 476 415 l 353 476 l 300 394 q 353 260 279 374 z "},"C":{"ha":797,"x_min":-8,"x_max":819,"o":"m 300 901 q 788 664 736 954 q 725 539 819 601 l 560 539 l 435 653 q 342 560 374 653 q 394 415 321 539 l 435 415 l 497 467 q 725 488 550 497 l 788 425 q 539 144 767 176 q 21 425 72 114 q 300 901 -8 871 m 404 197 q 569 228 446 186 l 694 342 q 632 435 704 363 l 456 342 q 300 394 332 321 q 300 664 321 550 q 394 725 321 715 l 497 725 q 643 601 611 581 q 704 664 664 590 q 446 850 685 788 q 72 550 144 850 q 404 197 93 260 z "},"D":{"ha":821,"x_min":-8,"x_max":808,"o":"m 550 1057 q 746 1057 632 1036 l 799 1006 l 778 829 l 778 332 q 799 135 808 260 l 746 83 l 643 93 l 435 63 q 21 311 83 0 q 83 694 -8 569 l 144 757 q 467 808 218 819 l 508 860 l 497 1006 l 550 1057 m 72 467 q 321 114 51 197 q 508 165 383 114 l 674 135 q 746 321 746 144 l 746 892 l 725 964 l 664 1006 q 560 922 581 1006 l 569 725 q 518 685 550 685 q 218 704 383 778 q 72 467 135 653 m 311 569 q 518 508 497 601 q 467 260 539 260 q 260 311 260 239 q 260 518 279 415 l 311 569 m 383 311 q 467 383 435 321 q 415 508 488 415 l 353 497 l 300 415 q 383 311 321 332 z "},"E":{"ha":914,"x_min":10,"x_max":922,"o":"m 83 892 q 104 694 114 808 l 93 694 q 83 456 114 560 q 104 239 72 332 l 197 186 l 269 207 l 632 186 l 778 197 l 829 260 q 685 394 860 363 l 321 383 l 269 435 q 290 560 260 560 q 685 601 300 601 q 715 694 736 643 l 643 746 l 425 736 q 363 829 374 757 q 476 964 353 964 l 725 954 l 788 994 l 788 1057 l 725 1099 l 560 1099 l 488 1078 l 342 1089 q 156 1068 269 1057 q 83 892 104 1068 m 218 1129 l 383 1119 l 488 1140 q 808 1140 632 1119 l 860 1089 q 808 913 881 933 q 446 871 590 954 l 446 819 l 508 778 l 725 788 l 778 736 q 725 529 799 529 q 363 497 404 560 q 404 425 342 488 l 674 425 q 892 269 922 518 q 839 135 892 135 l 560 156 q 218 156 311 135 q 31 186 42 104 l 51 456 q 63 685 31 632 l 42 767 l 51 881 q 42 1089 10 943 q 218 1129 42 1129 z "},"F":{"ha":842,"x_min":31,"x_max":839,"o":"m 104 1006 l 249 994 l 363 1015 q 767 1015 529 994 l 819 964 q 767 746 839 746 l 425 767 l 342 704 l 342 643 l 415 590 l 715 601 l 767 550 q 715 342 788 342 l 488 353 l 415 300 l 394 249 l 404 51 l 353 0 l 156 21 q 31 63 72 -21 l 51 539 l 42 943 l 104 1006 m 165 51 l 311 72 l 363 144 l 353 342 l 404 394 l 632 383 l 685 415 l 715 467 l 694 518 l 632 560 l 332 550 l 279 601 q 332 808 260 808 q 704 808 497 788 l 757 850 q 674 974 799 901 l 425 974 q 218 964 363 933 q 83 850 135 954 l 93 165 l 83 165 l 93 104 l 165 51 z "},"G":{"ha":779,"x_min":21,"x_max":778,"o":"m 249 1015 l 725 994 l 778 943 q 778 218 757 622 q 518 -10 736 21 q 260 -10 363 10 q 21 186 42 21 l 21 290 q 83 404 93 383 q 21 569 31 497 l 21 778 q 249 1015 72 994 m 300 581 q 300 767 321 674 l 353 819 q 569 757 569 829 q 518 529 590 539 q 300 581 300 508 m 332 42 q 632 125 497 21 q 736 353 694 156 l 736 850 l 715 901 l 674 933 l 632 933 l 569 892 l 374 954 q 72 694 144 974 q 269 383 63 508 l 467 394 l 497 353 q 446 165 518 176 l 321 165 l 218 269 q 93 228 144 311 q 176 93 93 144 l 332 42 m 425 581 q 518 653 488 590 l 497 725 l 446 757 l 374 736 l 353 694 q 425 581 342 622 m 353 239 l 415 239 l 415 300 l 353 300 l 353 239 z "},"H":{"ha":942,"x_min":42,"x_max":933,"o":"m 353 819 l 342 569 l 374 518 l 425 488 l 488 488 l 560 539 l 581 590 q 581 808 560 799 q 715 850 601 850 q 922 799 922 871 q 901 611 933 685 l 913 -42 l 860 -93 l 736 -104 q 581 -51 611 -125 l 601 125 l 581 186 l 518 239 l 456 228 l 404 165 l 394 -62 q 249 -135 363 -156 l 93 -125 l 42 -72 l 51 186 l 63 435 l 42 529 l 51 829 q 186 871 72 871 q 353 819 332 892 m 165 -72 l 300 -62 l 342 21 l 353 239 q 415 290 363 279 q 643 239 632 311 q 715 -42 611 0 q 871 63 829 -51 l 871 653 q 808 788 860 757 l 664 778 l 611 694 l 622 497 l 569 446 q 342 446 456 467 l 290 497 q 290 767 311 550 l 239 808 l 135 799 l 83 715 l 104 456 l 93 0 q 165 -72 125 -51 z "},"I":{"ha":396,"x_min":21,"x_max":363,"o":"m 63 871 l 83 611 l 72 611 l 83 290 l 63 176 l 93 114 l 156 72 l 228 72 l 300 125 l 321 176 l 300 456 l 311 456 q 321 819 290 778 q 207 974 332 913 l 156 974 l 83 922 l 63 871 m 72 1015 q 311 1015 176 994 l 363 964 q 363 674 342 860 l 342 581 l 363 353 q 363 83 342 218 l 311 31 q 72 31 104 51 l 21 83 q 21 383 42 176 l 42 476 l 42 601 l 21 694 q 21 964 42 850 l 72 1015 z "},"J":{"ha":708,"x_min":21,"x_max":704,"o":"m 415 1129 l 653 1119 l 704 1068 q 704 767 685 974 l 685 664 l 694 332 q 446 93 632 93 l 228 93 q 21 300 63 114 l 21 508 l 72 560 q 269 560 218 539 q 342 539 300 529 l 383 611 l 363 1078 l 415 1129 m 72 435 q 300 144 83 197 q 653 456 590 135 q 664 974 632 757 q 581 1068 643 1036 q 415 1006 446 1099 l 425 353 l 374 300 l 300 311 q 260 456 260 321 q 156 518 228 508 l 104 488 l 72 435 z "},"K":{"ha":801,"x_min":10,"x_max":819,"o":"m 518 839 l 725 839 l 767 799 l 746 715 q 643 590 632 611 l 664 508 q 808 218 819 239 l 767 156 l 590 125 q 476 165 488 125 l 394 311 l 342 321 q 300 165 311 311 l 249 135 q 83 135 165 156 l 31 186 l 42 829 q 21 1068 10 881 q 135 1129 72 1140 q 332 1078 321 1150 q 363 767 300 943 l 425 767 l 529 839 l 518 839 m 156 186 q 249 228 239 186 q 300 435 249 394 l 363 476 l 446 425 q 581 207 529 197 q 694 239 590 176 l 694 300 l 550 560 l 550 632 l 611 715 l 601 767 q 374 601 550 808 l 311 590 l 290 622 l 279 778 l 290 985 l 228 1068 q 72 985 93 1089 l 83 839 l 72 279 q 156 186 93 218 z "},"L":{"ha":681,"x_min":10,"x_max":767,"o":"m 144 1015 q 363 964 363 1036 l 353 394 l 383 332 l 446 290 l 685 300 l 736 249 q 674 10 767 83 l 518 10 l 456 31 q 63 31 114 10 l 10 83 q 10 353 31 176 q 21 954 51 467 q 144 1015 63 1026 m 260 63 l 622 72 l 674 125 l 674 197 l 601 260 l 363 249 l 311 300 l 321 871 l 300 922 l 260 954 l 114 943 l 63 860 q 51 176 83 249 l 104 93 l 260 63 z "},"M":{"ha":1185,"x_min":-19,"x_max":1203,"o":"m 404 892 q 674 850 601 913 l 860 892 q 1140 839 1026 913 q 1203 715 1192 799 q 1203 218 1182 425 l 1150 165 q 954 165 1006 186 l 901 218 l 913 394 q 892 560 881 456 l 860 611 l 799 611 l 757 539 l 767 228 l 715 176 l 508 186 l 456 239 l 467 518 l 446 569 l 404 601 q 332 560 353 601 l 311 497 q 311 207 332 249 q 186 165 290 165 q 10 218 31 144 l 31 456 l 31 653 q 63 839 -19 808 l 260 839 l 404 892 m 581 239 l 674 249 l 725 332 l 715 632 l 757 685 q 954 539 985 715 l 943 311 l 974 249 l 1036 207 q 1119 239 1057 197 l 1161 311 q 1129 704 1171 632 q 943 839 1078 808 q 715 736 839 850 l 664 736 l 529 829 q 353 778 404 829 q 165 788 260 715 q 83 746 104 788 l 63 664 q 135 228 31 290 l 228 239 l 279 321 l 269 601 l 332 664 q 508 611 488 685 q 581 239 456 260 z "},"N":{"ha":756,"x_min":42,"x_max":746,"o":"m 446 632 q 746 497 746 653 l 746 249 q 736 -42 704 207 l 685 -93 l 497 -83 l 446 -31 q 415 332 476 269 l 353 332 l 321 269 q 321 0 342 93 l 260 -62 q 42 -10 42 -83 q 42 550 63 269 l 93 601 l 332 590 l 456 632 l 446 632 m 569 -31 q 694 51 622 -51 l 685 467 l 632 539 l 581 569 q 311 488 456 590 q 186 529 269 467 q 83 456 144 560 l 83 83 q 165 -10 104 21 q 260 42 207 -10 l 290 197 l 279 374 l 321 425 q 497 353 497 435 l 488 63 q 569 -31 508 0 z "},"O":{"ha":956,"x_min":31,"x_max":1036,"o":"m 394 1036 q 994 674 943 1089 q 653 0 1036 104 q 31 404 93 -51 q 31 694 51 550 q 394 1036 83 1006 m 497 51 q 943 497 839 63 q 569 985 943 901 q 207 871 311 974 q 72 550 125 799 l 135 300 q 497 51 249 104 m 383 788 l 643 778 l 694 725 l 674 415 q 622 228 715 260 q 374 249 415 218 q 332 374 332 269 q 332 736 353 601 l 383 788 m 467 290 q 643 425 611 249 l 632 674 l 569 725 q 374 643 435 767 q 404 332 363 569 l 467 290 z "},"P":{"ha":776,"x_min":21,"x_max":829,"o":"m 83 829 q 83 144 104 715 q 165 51 104 83 q 311 135 228 10 q 353 342 269 321 q 746 632 653 260 q 476 954 736 892 l 363 933 l 249 860 l 125 881 l 83 829 m 363 1006 q 799 767 725 1057 q 725 363 829 539 l 601 279 l 404 260 q 342 165 353 218 q 300 -10 383 0 l 93 0 l 42 51 l 51 590 q 21 881 21 601 q 72 954 42 943 l 228 954 l 363 1006 m 300 622 l 321 539 l 383 497 q 497 590 456 497 l 476 674 l 415 715 q 300 622 342 715 m 311 767 m 260 715 q 488 767 425 746 l 539 715 q 539 497 518 560 l 488 446 q 311 446 374 467 l 260 497 q 260 715 279 569 z "},"Q":{"ha":1300,"x_min":-19,"x_max":801,"o":"m 274 1115 l 507 1106 l 649 1054 q 801 1014 781 1094 l 781 913 l 790 771 l 771 649 q 790 163 760 243 q 588 92 790 92 q 467 142 467 92 l 486 294 q 415 375 456 354 q 21 649 61 325 q 274 1115 -19 1064 m 599 151 l 689 172 l 740 253 l 731 953 l 700 983 l 568 983 l 436 1054 q 172 983 243 1064 q 71 771 111 903 q 283 436 50 568 q 486 456 406 426 l 528 415 q 528 224 507 233 q 599 151 557 172 m 344 922 l 497 913 l 557 851 q 557 629 538 740 l 507 578 l 344 588 l 294 639 q 294 872 314 719 l 344 922 m 415 639 l 476 658 l 517 731 l 497 811 l 456 851 q 335 771 385 872 q 415 639 335 689 z "},"R":{"ha":839,"x_min":18,"x_max":849,"o":"m 75 867 q 75 233 93 344 l 103 186 l 149 158 q 224 186 168 149 l 261 251 l 242 429 l 289 475 l 467 475 l 513 429 q 578 168 503 206 q 764 271 718 103 l 726 438 l 615 540 l 615 578 q 764 736 726 653 q 708 894 792 811 l 597 951 l 447 979 l 149 960 q 75 867 103 932 m 196 1017 q 560 1017 233 997 q 821 849 801 988 q 756 568 849 671 l 764 503 q 801 317 821 401 l 792 279 l 821 149 l 774 103 l 513 121 l 475 168 l 467 354 q 289 344 364 503 l 299 168 l 251 121 q 65 121 158 140 l 18 168 l 47 568 l 38 960 l 83 1007 l 196 1017 m 354 839 q 513 839 457 821 l 560 792 q 513 615 578 625 q 307 663 317 597 q 354 839 289 829 m 419 663 q 503 708 438 643 q 447 792 532 726 q 364 756 429 811 q 419 663 336 699 z "},"S":{"ha":964,"x_min":-19,"x_max":983,"o":"m 385 882 q 436 801 365 832 l 507 842 l 497 892 l 446 913 l 385 882 m 335 1146 q 629 1146 547 1125 q 892 943 882 1085 l 892 842 l 842 760 l 842 719 q 933 335 983 629 q 629 132 861 151 l 294 142 q 122 213 172 172 q 21 365 50 264 q 122 538 -8 497 l 111 588 q 40 993 -19 669 q 335 1146 101 1125 m 436 396 q 568 415 557 385 l 568 476 l 528 497 q 385 476 406 507 q 436 396 365 426 m 476 172 q 750 243 669 203 q 882 415 832 304 q 426 771 943 689 q 294 811 325 731 q 344 953 274 922 q 547 953 426 933 l 658 861 q 821 892 771 811 q 771 1004 842 922 q 507 1106 719 1064 q 203 1044 335 1094 q 81 892 132 993 q 151 658 71 700 q 294 578 243 578 l 599 547 q 649 385 679 507 l 599 335 l 365 344 l 264 436 l 132 446 l 101 415 q 476 172 101 243 z "},"T":{"ha":597,"x_min":-31,"x_max":578,"o":"m 222 710 q 344 689 344 719 q 375 568 375 689 l 406 538 q 538 476 547 528 l 526 344 q 385 294 517 304 q 344 132 344 253 q 406 92 354 101 q 568 61 526 142 q 538 -132 578 -81 q 415 -193 496 -182 q 50 -71 111 -233 l 61 243 l -21 365 q 0 486 -31 486 l 111 568 q 222 710 182 719 m 293 -142 l 415 -122 l 496 -31 q 476 10 507 0 l 436 10 q 335 -31 365 -50 l 283 21 q 304 325 274 193 q 425 365 324 365 q 456 446 476 385 l 314 507 q 264 618 293 618 l 213 599 q 71 436 172 476 l 71 385 l 132 304 l 90 40 l 151 -81 l 293 -142 z "},"U":{"ha":1022,"x_min":31,"x_max":760,"o":"m 81 719 l 224 700 q 344 658 304 740 l 335 325 l 365 274 l 426 274 l 467 344 l 467 557 q 497 731 415 719 q 760 679 750 750 l 740 375 l 760 111 l 710 61 l 538 61 l 385 10 q 40 182 71 -31 q 31 669 61 243 l 81 719 m 243 71 q 476 142 375 61 q 629 111 517 151 q 710 253 700 122 q 689 629 719 557 l 618 679 q 497 568 528 689 l 507 253 l 467 203 q 283 253 294 182 l 283 446 q 283 618 325 547 l 203 669 l 132 649 l 92 588 q 81 304 111 365 q 243 71 101 132 z "},"V":{"ha":843,"x_min":10,"x_max":842,"o":"m 92 892 l 274 163 q 354 81 294 111 q 557 172 538 61 l 760 842 q 719 933 760 903 q 608 842 649 953 l 497 325 l 446 304 l 406 385 l 294 903 q 92 892 182 1044 m 61 1014 q 304 1014 203 993 q 365 933 375 953 l 415 658 q 497 629 436 588 l 568 953 l 618 1004 l 790 993 l 842 943 l 719 436 l 599 71 l 538 21 l 283 31 q 213 132 213 61 l 10 933 q 61 1014 10 993 z "},"W":{"ha":1097,"x_min":-8,"x_max":1085,"o":"m 61 608 q 264 608 182 588 l 304 578 l 325 507 q 385 486 335 476 q 507 599 456 618 q 679 599 578 578 l 731 557 q 811 476 750 456 l 872 578 q 1085 538 1064 618 q 922 -21 1024 233 q 790 -81 861 -92 l 629 -81 q 538 61 588 -71 l 486 61 l 436 -50 l 375 -81 l 193 -71 q 10 517 122 -81 q 61 608 -8 547 m 264 -21 q 365 0 335 -31 l 415 81 q 517 365 415 182 l 568 354 q 639 31 578 233 l 689 -21 q 872 50 842 -31 l 993 415 q 974 517 1004 476 q 892 476 913 538 l 821 163 l 760 151 q 669 497 700 446 q 547 547 588 578 q 456 456 486 528 l 396 182 q 314 182 335 163 l 274 446 q 182 557 274 497 l 111 538 l 92 497 l 182 71 l 264 -21 z "},"X":{"ha":914,"x_min":0,"x_max":974,"o":"m 151 993 l 354 993 l 406 963 l 486 851 l 528 842 l 639 963 q 933 933 892 993 q 892 811 953 892 l 731 588 l 719 497 l 922 193 q 943 71 974 92 q 821 40 943 40 l 599 50 q 486 182 568 50 q 415 182 456 203 l 344 61 q 203 31 274 10 l 203 40 l 50 31 l 10 61 q 40 182 0 122 l 233 507 q 213 608 243 578 q 21 903 61 790 q 151 993 0 993 m 142 903 l 142 842 q 325 528 354 568 q 132 163 294 406 l 132 111 l 182 71 q 304 142 283 101 q 467 365 415 396 l 517 325 q 679 101 578 172 q 790 101 731 81 l 832 151 l 811 213 q 618 538 639 446 l 679 669 l 801 842 l 801 882 l 760 913 q 649 861 689 913 q 507 689 538 679 q 365 882 436 700 q 142 903 264 993 z "},"Y":{"ha":811,"x_min":-8,"x_max":842,"o":"m 111 639 l 111 588 l 314 172 l 304 -122 q 375 -203 335 -193 q 538 -142 507 -233 q 538 193 517 61 l 731 588 q 700 669 740 639 q 588 618 629 689 l 486 375 q 415 365 467 335 l 325 599 q 203 689 283 679 q 111 639 182 710 m 50 731 q 314 731 203 710 q 415 568 385 710 l 456 557 l 497 578 q 599 740 538 719 l 801 719 l 842 669 l 821 588 l 618 182 l 578 40 l 588 -224 l 253 -224 l 243 -162 l 274 50 l 224 203 l 10 629 q 50 731 -8 719 z "},"Z":{"ha":754,"x_min":21,"x_max":731,"o":"m 132 760 q 172 679 111 700 l 385 679 q 415 608 436 658 l 92 283 l 101 233 l 151 203 l 578 203 l 649 243 q 629 314 658 314 l 426 325 q 396 396 375 344 l 618 639 l 649 719 l 618 771 l 568 801 l 193 801 l 132 760 m 111 842 l 578 832 q 700 790 658 872 l 700 618 q 568 446 679 557 l 568 396 q 731 325 710 406 l 710 182 l 669 151 l 557 172 l 71 163 l 21 213 l 21 325 l 40 365 l 224 547 q 224 608 243 557 q 50 669 61 608 q 111 842 40 801 z "},"a":{"ha":964,"x_min":10,"x_max":943,"o":"m 342 913 l 643 901 q 725 767 704 860 l 943 0 q 892 -83 943 -62 q 601 -83 725 -62 l 560 -51 l 518 51 q 425 114 456 125 q 332 -31 363 104 q 197 -83 279 -93 l 186 -72 q 21 -31 63 -114 q 83 228 10 42 l 290 871 l 342 913 m 156 -31 q 249 0 197 -42 l 300 125 q 518 165 332 186 l 569 135 l 601 42 q 736 -42 704 -62 q 850 21 767 -72 q 643 788 871 31 q 497 860 590 839 q 332 778 374 881 l 104 63 q 156 -31 83 42 m 446 685 l 497 664 l 560 425 q 518 321 581 332 q 353 374 374 300 l 415 653 l 446 685 z "},"b":{"ha":828,"x_min":21,"x_max":850,"o":"m 83 788 l 83 176 q 165 72 104 93 q 404 63 300 135 q 746 374 653 31 q 569 694 746 590 l 456 694 l 353 643 q 300 685 311 643 l 300 892 l 218 974 q 114 943 186 985 l 83 788 m 83 1026 l 239 1006 q 363 964 321 1047 l 353 819 l 383 767 q 715 704 653 767 q 778 207 850 560 q 550 0 704 21 l 207 21 q 31 63 63 -21 l 51 239 l 51 778 q 31 974 21 850 l 83 1026 m 374 550 q 518 488 488 581 q 456 197 550 260 q 260 249 269 176 l 269 508 q 374 550 300 550 m 353 260 q 456 321 415 228 q 415 476 476 415 l 353 476 l 300 394 q 353 260 279 374 z "},"c":{"ha":797,"x_min":-8,"x_max":819,"o":"m 300 901 q 788 664 736 954 q 725 539 819 601 l 560 539 l 435 653 q 342 560 374 653 q 394 415 321 539 l 435 415 l 497 467 q 725 488 550 497 l 788 425 q 539 144 767 176 q 21 425 72 114 q 300 901 -8 871 m 404 197 q 569 228 446 186 l 694 342 q 632 435 704 363 l 456 342 q 300 394 332 321 q 300 664 321 550 q 394 725 321 715 l 497 725 q 643 601 611 581 q 704 664 664 590 q 446 850 685 788 q 72 550 144 850 q 404 197 93 260 z "},"d":{"ha":821,"x_min":-8,"x_max":808,"o":"m 550 1057 q 746 1057 632 1036 l 799 1006 l 778 829 l 778 332 q 799 135 808 260 l 746 83 l 643 93 l 435 63 q 21 311 83 0 q 83 694 -8 569 l 144 757 q 467 808 218 819 l 508 860 l 497 1006 l 550 1057 m 72 467 q 321 114 51 197 q 508 165 383 114 l 674 135 q 746 321 746 144 l 746 892 l 725 964 l 664 1006 q 560 922 581 1006 l 569 725 q 518 685 550 685 q 218 704 383 778 q 72 467 135 653 m 311 569 q 518 508 497 601 q 467 260 539 260 q 260 311 260 239 q 260 518 279 415 l 311 569 m 383 311 q 467 383 435 321 q 415 508 488 415 l 353 497 l 300 415 q 383 311 321 332 z "},"e":{"ha":914,"x_min":10,"x_max":922,"o":"m 83 892 q 104 694 114 808 l 93 694 q 83 456 114 560 q 104 239 72 332 l 197 186 l 269 207 l 632 186 l 778 197 l 829 260 q 685 394 860 363 l 321 383 l 269 435 q 290 560 260 560 q 685 601 300 601 q 715 694 736 643 l 643 746 l 425 736 q 363 829 374 757 q 476 964 353 964 l 725 954 l 788 994 l 788 1057 l 725 1099 l 560 1099 l 488 1078 l 342 1089 q 156 1068 269 1057 q 83 892 104 1068 m 218 1129 l 383 1119 l 488 1140 q 808 1140 632 1119 l 860 1089 q 808 913 881 933 q 446 871 590 954 l 446 819 l 508 778 l 725 788 l 778 736 q 725 529 799 529 q 363 497 404 560 q 404 425 342 488 l 674 425 q 892 269 922 518 q 839 135 892 135 l 560 156 q 218 156 311 135 q 31 186 42 104 l 51 456 q 63 685 31 632 l 42 767 l 51 881 q 42 1089 10 943 q 218 1129 42 1129 z "},"f":{"ha":842,"x_min":31,"x_max":839,"o":"m 104 1006 l 249 994 l 363 1015 q 767 1015 529 994 l 819 964 q 767 746 839 746 l 425 767 l 342 704 l 342 643 l 415 590 l 715 601 l 767 550 q 715 342 788 342 l 488 353 l 415 300 l 394 249 l 404 51 l 353 0 l 156 21 q 31 63 72 -21 l 51 539 l 42 943 l 104 1006 m 165 51 l 311 72 l 363 144 l 353 342 l 404 394 l 632 383 l 685 415 l 715 467 l 694 518 l 632 560 l 332 550 l 279 601 q 332 808 260 808 q 704 808 497 788 l 757 850 q 674 974 799 901 l 425 974 q 218 964 363 933 q 83 850 135 954 l 93 165 l 83 165 l 93 104 l 165 51 z "},"g":{"ha":779,"x_min":21,"x_max":778,"o":"m 249 1015 l 725 994 l 778 943 q 778 218 757 622 q 518 -10 736 21 q 260 -10 363 10 q 21 186 42 21 l 21 290 q 83 404 93 383 q 21 569 31 497 l 21 778 q 249 1015 72 994 m 300 581 q 300 767 321 674 l 353 819 q 569 757 569 829 q 518 529 590 539 q 300 581 300 508 m 332 42 q 632 125 497 21 q 736 353 694 156 l 736 850 l 715 901 l 674 933 l 632 933 l 569 892 l 374 954 q 72 694 144 974 q 269 383 63 508 l 467 394 l 497 353 q 446 165 518 176 l 321 165 l 218 269 q 93 228 144 311 q 176 93 93 144 l 332 42 m 425 581 q 518 653 488 590 l 497 725 l 446 757 l 374 736 l 353 694 q 425 581 342 622 m 353 239 l 415 239 l 415 300 l 353 300 l 353 239 z "},"h":{"ha":942,"x_min":42,"x_max":933,"o":"m 353 819 l 342 569 l 374 518 l 425 488 l 488 488 l 560 539 l 581 590 q 581 808 560 799 q 715 850 601 850 q 922 799 922 871 q 901 611 933 685 l 913 -42 l 860 -93 l 736 -104 q 581 -51 611 -125 l 601 125 l 581 186 l 518 239 l 456 228 l 404 165 l 394 -62 q 249 -135 363 -156 l 93 -125 l 42 -72 l 51 186 l 63 435 l 42 529 l 51 829 q 186 871 72 871 q 353 819 332 892 m 165 -72 l 300 -62 l 342 21 l 353 239 q 415 290 363 279 q 643 239 632 311 q 715 -42 611 0 q 871 63 829 -51 l 871 653 q 808 788 860 757 l 664 778 l 611 694 l 622 497 l 569 446 q 342 446 456 467 l 290 497 q 290 767 311 550 l 239 808 l 135 799 l 83 715 l 104 456 l 93 0 q 165 -72 125 -51 z "},"i":{"ha":396,"x_min":21,"x_max":363,"o":"m 63 871 l 83 611 l 72 611 l 83 290 l 63 176 l 93 114 l 156 72 l 228 72 l 300 125 l 321 176 l 300 456 l 311 456 q 321 819 290 778 q 207 974 332 913 l 156 974 l 83 922 l 63 871 m 72 1015 q 311 1015 176 994 l 363 964 q 363 674 342 860 l 342 581 l 363 353 q 363 83 342 218 l 311 31 q 72 31 104 51 l 21 83 q 21 383 42 176 l 42 476 l 42 601 l 21 694 q 21 964 42 850 l 72 1015 z "},"j":{"ha":708,"x_min":21,"x_max":704,"o":"m 415 1129 l 653 1119 l 704 1068 q 704 767 685 974 l 685 664 l 694 332 q 446 93 632 93 l 228 93 q 21 300 63 114 l 21 508 l 72 560 q 269 560 218 539 q 342 539 300 529 l 383 611 l 363 1078 l 415 1129 m 72 435 q 300 144 83 197 q 653 456 590 135 q 664 974 632 757 q 581 1068 643 1036 q 415 1006 446 1099 l 425 353 l 374 300 l 300 311 q 260 456 260 321 q 156 518 228 508 l 104 488 l 72 435 z "},"k":{"ha":801,"x_min":10,"x_max":819,"o":"m 518 839 l 725 839 l 767 799 l 746 715 q 643 590 632 611 l 664 508 q 808 218 819 239 l 767 156 l 590 125 q 476 165 488 125 l 394 311 l 342 321 q 300 165 311 311 l 249 135 q 83 135 165 156 l 31 186 l 42 829 q 21 1068 10 881 q 135 1129 72 1140 q 332 1078 321 1150 q 363 767 300 943 l 425 767 l 529 839 l 518 839 m 156 186 q 249 228 239 186 q 300 435 249 394 l 363 476 l 446 425 q 581 207 529 197 q 694 239 590 176 l 694 300 l 550 560 l 550 632 l 611 715 l 601 767 q 374 601 550 808 l 311 590 l 290 622 l 279 778 l 290 985 l 228 1068 q 72 985 93 1089 l 83 839 l 72 279 q 156 186 93 218 z "},"l":{"ha":681,"x_min":10,"x_max":767,"o":"m 144 1015 q 363 964 363 1036 l 353 394 l 383 332 l 446 290 l 685 300 l 736 249 q 674 10 767 83 l 518 10 l 456 31 q 63 31 114 10 l 10 83 q 10 353 31 176 q 21 954 51 467 q 144 1015 63 1026 m 260 63 l 622 72 l 674 125 l 674 197 l 601 260 l 363 249 l 311 300 l 321 871 l 300 922 l 260 954 l 114 943 l 63 860 q 51 176 83 249 l 104 93 l 260 63 z "},"m":{"ha":1185,"x_min":-19,"x_max":1203,"o":"m 404 892 q 674 850 601 913 l 860 892 q 1140 839 1026 913 q 1203 715 1192 799 q 1203 218 1182 425 l 1150 165 q 954 165 1006 186 l 901 218 l 913 394 q 892 560 881 456 l 860 611 l 799 611 l 757 539 l 767 228 l 715 176 l 508 186 l 456 239 l 467 518 l 446 569 l 404 601 q 332 560 353 601 l 311 497 q 311 207 332 249 q 186 165 290 165 q 10 218 31 144 l 31 456 l 31 653 q 63 839 -19 808 l 260 839 l 404 892 m 581 239 l 674 249 l 725 332 l 715 632 l 757 685 q 954 539 985 715 l 943 311 l 974 249 l 1036 207 q 1119 239 1057 197 l 1161 311 q 1129 704 1171 632 q 943 839 1078 808 q 715 736 839 850 l 664 736 l 529 829 q 353 778 404 829 q 165 788 260 715 q 83 746 104 788 l 63 664 q 135 228 31 290 l 228 239 l 279 321 l 269 601 l 332 664 q 508 611 488 685 q 581 239 456 260 z "},"n":{"ha":756,"x_min":42,"x_max":746,"o":"m 446 632 q 746 497 746 653 l 746 249 q 736 -42 704 207 l 685 -93 l 497 -83 l 446 -31 q 415 332 476 269 l 353 332 l 321 269 q 321 0 342 93 l 260 -62 q 42 -10 42 -83 q 42 550 63 269 l 93 601 l 332 590 l 456 632 l 446 632 m 569 -31 q 694 51 622 -51 l 685 467 l 632 539 l 581 569 q 311 488 456 590 q 186 529 269 467 q 83 456 144 560 l 83 83 q 165 -10 104 21 q 260 42 207 -10 l 290 197 l 279 374 l 321 425 q 497 353 497 435 l 488 63 q 569 -31 508 0 z "},"o":{"ha":956,"x_min":31,"x_max":1036,"o":"m 394 1036 q 994 674 943 1089 q 653 0 1036 104 q 31 404 93 -51 q 31 694 51 550 q 394 1036 83 1006 m 497 51 q 943 497 839 63 q 569 985 943 901 q 207 871 311 974 q 72 550 125 799 l 135 300 q 497 51 249 104 m 383 788 l 643 778 l 694 725 l 674 415 q 622 228 715 260 q 374 249 415 218 q 332 374 332 269 q 332 736 353 601 l 383 788 m 467 290 q 643 425 611 249 l 632 674 l 569 725 q 374 643 435 767 q 404 332 363 569 l 467 290 z "},"p":{"ha":776,"x_min":21,"x_max":829,"o":"m 83 829 q 83 144 104 715 q 165 51 104 83 q 311 135 228 10 q 353 342 269 321 q 746 632 653 260 q 476 954 736 892 l 363 933 l 249 860 l 125 881 l 83 829 m 363 1006 q 799 767 725 1057 q 725 363 829 539 l 601 279 l 404 260 q 342 165 353 218 q 300 -10 383 0 l 93 0 l 42 51 l 51 590 q 21 881 21 601 q 72 954 42 943 l 228 954 l 363 1006 m 300 622 l 321 539 l 383 497 q 497 590 456 497 l 476 674 l 415 715 q 300 622 342 715 m 311 767 q 488 767 425 746 l 539 715 q 539 497 518 560 l 488 446 q 311 446 374 467 l 260 497 q 311 767 279 569 z "},"q":{"ha":833,"x_min":-19,"x_max":801,"o":"m 274 1115 l 507 1106 l 649 1054 q 801 1014 781 1094 l 781 913 l 790 771 l 771 649 q 790 163 760 243 q 588 92 790 92 q 467 142 467 92 l 486 294 q 415 375 456 354 q 21 649 61 325 q 274 1115 -19 1064 m 599 151 l 689 172 l 740 253 l 731 953 l 700 983 l 568 983 l 436 1054 q 172 983 243 1064 q 71 771 111 903 q 283 436 50 568 q 486 456 406 426 l 528 415 q 528 224 507 233 q 599 151 557 172 m 344 922 l 497 913 l 557 851 q 557 629 538 740 l 507 578 l 344 588 l 294 639 q 294 872 314 719 l 344 922 m 415 639 l 476 658 l 517 731 l 497 811 l 456 851 q 335 771 385 872 q 415 639 335 689 z "},"r":{"ha":839,"x_min":18,"x_max":849,"o":"m 75 867 q 75 233 93 344 l 103 186 l 149 158 q 224 186 168 149 l 261 251 l 242 429 l 289 475 l 467 475 l 513 429 q 578 168 503 206 q 764 271 718 103 l 726 438 l 615 540 l 615 578 q 764 736 726 653 q 708 894 792 811 l 597 951 l 447 979 l 149 960 q 75 867 103 932 m 196 1017 q 560 1017 233 997 q 821 849 801 988 q 756 568 849 671 l 764 503 q 801 317 821 401 l 792 279 l 821 149 l 774 103 l 513 121 l 475 168 l 467 354 q 289 344 364 503 l 299 168 l 251 121 q 65 121 158 140 l 18 168 l 47 568 l 38 960 l 83 1007 l 196 1017 m 354 839 q 513 839 457 821 l 560 792 q 513 615 578 625 q 307 663 317 597 q 354 839 289 829 m 419 663 q 503 708 438 643 q 447 792 532 726 q 364 756 429 811 q 419 663 336 699 z "},"s":{"ha":964,"x_min":-19,"x_max":983,"o":"m 385 882 q 436 801 365 832 l 507 842 l 497 892 l 446 913 l 385 882 m 335 1146 q 629 1146 547 1125 q 892 943 882 1085 l 892 842 l 842 760 l 842 719 q 933 335 983 629 q 629 132 861 151 l 294 142 q 122 213 172 172 q 21 365 50 264 q 122 538 -8 497 l 111 588 q 40 993 -19 669 q 335 1146 101 1125 m 436 396 q 568 415 557 385 l 568 476 l 528 497 q 385 476 406 507 q 436 396 365 426 m 476 172 q 750 243 669 203 q 882 415 832 304 q 426 771 943 689 q 294 811 325 731 q 344 953 274 922 q 547 953 426 933 l 658 861 q 821 892 771 811 q 771 1004 842 922 q 507 1106 719 1064 q 203 1044 335 1094 q 81 892 132 993 q 151 658 71 700 q 294 578 243 578 l 599 547 q 649 385 679 507 l 599 335 l 365 344 l 264 436 l 132 446 l 101 415 q 476 172 101 243 z "},"t":{"ha":597,"x_min":-31,"x_max":578,"o":"m 222 710 q 344 689 344 719 q 375 568 375 689 l 406 538 q 538 476 547 528 l 526 344 q 385 294 517 304 q 344 132 344 253 q 406 92 354 101 q 568 61 526 142 q 538 -132 578 -81 q 415 -193 496 -182 q 50 -71 111 -233 l 61 243 l -21 365 q 0 486 -31 486 l 111 568 q 222 710 182 719 m 293 -142 l 415 -122 l 496 -31 q 476 10 507 0 l 436 10 q 335 -31 365 -50 l 283 21 q 304 325 274 193 q 425 365 324 365 q 456 446 476 385 l 314 507 q 264 618 293 618 l 213 599 q 71 436 172 476 l 71 385 l 132 304 l 90 40 l 151 -81 l 293 -142 z "},"u":{"ha":739,"x_min":31,"x_max":760,"o":"m 81 719 l 224 700 q 344 658 304 740 l 335 325 l 365 274 l 426 274 l 467 344 l 467 557 q 497 731 415 719 q 760 679 750 750 l 740 375 l 760 111 l 710 61 l 538 61 l 385 10 q 40 182 71 -31 q 31 669 61 243 l 81 719 m 243 71 q 476 142 375 61 q 629 111 517 151 q 710 253 700 122 q 689 629 719 557 l 618 679 q 497 568 528 689 l 507 253 l 467 203 q 283 253 294 182 l 283 446 q 283 618 325 547 l 203 669 l 132 649 l 92 588 q 81 304 111 365 q 243 71 101 132 z "},"v":{"ha":843,"x_min":10,"x_max":842,"o":"m 92 892 l 274 163 q 354 81 294 111 q 557 172 538 61 l 760 842 q 719 933 760 903 q 608 842 649 953 l 497 325 l 446 304 l 406 385 l 294 903 q 92 892 182 1044 m 61 1014 q 304 1014 203 993 q 365 933 375 953 l 415 658 q 497 629 436 588 l 568 953 l 618 1004 l 790 993 l 842 943 l 719 436 l 599 71 l 538 21 l 283 31 q 213 132 213 61 l 10 933 q 61 1014 10 993 z "},"w":{"ha":1097,"x_min":-8,"x_max":1085,"o":"m 61 608 q 264 608 182 588 l 304 578 l 325 507 q 385 486 335 476 q 507 599 456 618 q 679 599 578 578 l 731 557 q 811 476 750 456 l 872 578 q 1085 538 1064 618 q 922 -21 1024 233 q 790 -81 861 -92 l 629 -81 q 538 61 588 -71 l 486 61 l 436 -50 l 375 -81 l 193 -71 q 10 517 122 -81 q 61 608 -8 547 m 264 -21 q 365 0 335 -31 l 415 81 q 517 365 415 182 l 568 354 q 639 31 578 233 l 689 -21 q 872 50 842 -31 l 993 415 q 974 517 1004 476 q 892 476 913 538 l 821 163 l 760 151 q 669 497 700 446 q 547 547 588 578 q 456 456 486 528 l 396 182 q 314 182 335 163 l 274 446 q 182 557 274 497 l 111 538 l 92 497 l 182 71 l 264 -21 z "},"x":{"ha":914,"x_min":0,"x_max":974,"o":"m 151 993 l 354 993 l 406 963 l 486 851 l 528 842 l 639 963 q 933 933 892 993 q 892 811 953 892 l 731 588 l 719 497 l 922 193 q 943 71 974 92 q 821 40 943 40 l 599 50 q 486 182 568 50 q 415 182 456 203 l 344 61 q 203 31 274 10 l 203 40 l 50 31 l 10 61 q 40 182 0 122 l 233 507 q 213 608 243 578 q 21 903 61 790 q 151 993 0 993 m 142 903 l 142 842 q 325 528 354 568 q 132 163 294 406 l 132 111 l 182 71 q 304 142 283 101 q 467 365 415 396 l 517 325 q 679 101 578 172 q 790 101 731 81 l 832 151 l 811 213 q 618 538 639 446 l 679 669 l 801 842 l 801 882 l 760 913 q 649 861 689 913 q 507 689 538 679 q 365 882 436 700 q 142 903 264 993 z "},"y":{"ha":811,"x_min":-8,"x_max":842,"o":"m 111 639 l 111 588 l 314 172 l 304 -122 q 375 -203 335 -193 q 538 -142 507 -233 q 538 193 517 61 l 731 588 q 700 669 740 639 q 588 618 629 689 l 486 375 q 415 365 467 335 l 325 599 q 203 689 283 679 q 111 639 182 710 m 50 731 q 314 731 203 710 q 415 568 385 710 l 456 557 l 497 578 q 599 740 538 719 l 801 719 l 842 669 l 821 588 l 618 182 l 578 40 l 588 -224 l 253 -224 l 243 -162 l 274 50 l 224 203 l 10 629 q 50 731 -8 719 z "},"z":{"ha":754,"x_min":21,"x_max":731,"o":"m 132 760 q 172 679 111 700 l 385 679 q 415 608 436 658 l 92 283 l 101 233 l 151 203 l 578 203 l 649 243 q 629 314 658 314 l 426 325 q 396 396 375 344 l 618 639 l 649 719 l 618 771 l 568 801 l 193 801 l 132 760 m 111 842 l 578 832 q 700 790 658 872 l 700 618 q 568 446 679 557 l 568 396 q 731 325 710 406 l 710 182 l 669 151 l 557 172 l 71 163 l 21 213 l 21 325 l 40 365 l 224 547 q 224 608 243 557 q 50 669 61 608 q 111 842 40 801 z "},"£":{"ha":810,"x_min":10,"x_max":774,"o":"m 326 876 q 726 699 681 922 l 718 568 q 606 540 699 522 l 560 485 l 568 336 l 522 289 l 419 279 q 401 214 392 271 l 522 196 l 726 224 l 774 178 l 764 10 l 718 -37 l 344 -18 l 140 -28 l 93 18 l 121 224 l 113 251 q 18 419 10 336 l 93 513 l 113 550 q 326 876 103 857 m 233 10 q 653 10 588 28 q 718 75 699 38 q 588 168 726 149 l 485 149 q 307 196 317 131 q 336 317 299 242 l 364 336 q 503 410 503 317 q 364 457 494 447 q 336 663 317 467 l 382 718 l 467 718 l 494 699 q 597 588 540 588 l 653 606 l 671 643 q 467 829 643 801 q 224 746 307 829 q 158 475 178 708 l 103 401 q 168 299 93 392 q 168 65 186 196 l 233 10 m 401 532 q 467 550 447 522 q 447 625 475 597 q 382 597 401 633 l 401 532 z "}}}
